PathFileType	4	(X/Y/Z)	C:\Users\Basilio\Documents\Thesis Gigler\squatting_fais\c3dfiles\077\SLS_back_pre4\markers_experimental.trc
DataRate	CameraRate	NumFrames	NumMarkers	Units	OrigDataRate	OrigDataStartFrame	OrigNumFrames
200.000000	200.000000	4	60	mm	200.000000	175	1402
Frame#	Time	FHD			LBHD			RBHD			C7			T10			CLAV			LSHO			LUUPA			LMUPA			LDUPA			LLEP			LMEP			LRAD			LUL			LRFIN			RSHO			RUPA1			RMUPA			RDUPA			RLEP			RMEP			RRAD			RUL			RUFIN			LASI			RASI			USACR			LSACR			RSACR			LTHI1			LTHI2			LTHI3			LTHI4			LLFC			LMFC			LTIB1			LTIB2			LTIB3			LTIB4			LLMAL			LHEE			LMT1			LMT2			LMT5			RTHI			RTHI2			RTHI3			RTHI4			RLFC			RMFC			RTIB1			RTIB2			RTIB3			RTIB4			RLMAL			RMMAL			RHEE			RMT1			RMT2			RMT5			
		X1	Y1	Z1	X2	Y2	Z2	X3	Y3	Z3	X4	Y4	Z4	X5	Y5	Z5	X6	Y6	Z6	X7	Y7	Z7	X8	Y8	Z8	X9	Y9	Z9	X10	Y10	Z10	X11	Y11	Z11	X12	Y12	Z12	X13	Y13	Z13	X14	Y14	Z14	X15	Y15	Z15	X16	Y16	Z16	X17	Y17	Z17	X18	Y18	Z18	X19	Y19	Z19	X20	Y20	Z20	X21	Y21	Z21	X22	Y22	Z22	X23	Y23	Z23	X24	Y24	Z24	X25	Y25	Z25	X26	Y26	Z26	X27	Y27	Z27	X28	Y28	Z28	X29	Y29	Z29	X30	Y30	Z30	X31	Y31	Z31	X32	Y32	Z32	X33	Y33	Z33	X34	Y34	Z34	X35	Y35	Z35	X36	Y36	Z36	X37	Y37	Z37	X38	Y38	Z38	X39	Y39	Z39	X40	Y40	Z40	X41	Y41	Z41	X42	Y42	Z42	X43	Y43	Z43	X44	Y44	Z44	X45	Y45	Z45	X46	Y46	Z46	X47	Y47	Z47	X48	Y48	Z48	X49	Y49	Z49	X50	Y50	Z50	X51	Y51	Z51	X52	Y52	Z52	X53	Y53	Z53	X54	Y54	Z54	X55	Y55	Z55	X56	Y56	Z56	X57	Y57	Z57	X58	Y58	Z58	X59	Y59	Z59	X60	Y60	Z60	

176	0.875	-259.9361572265626	1855.500366210938	-892.500183105469	-406.7778930664064	1749.943359375	-950.2121582031252	-402.919647216797	1747.59228515625	-803.598083496094	-454.1911621093751	1601.31396484375	-882.7817993164065	-446.3609619140626	1263.855834960938	-866.0286865234377	-288.3306579589844	1557.141479492188	-888.149597167969	-332.1438903808594	1586.6728515625	-1071.885375976563	-203.2023620605469	1451.800170898438	-1193.621948242188	-161.365707397461	1476.730590820313	-1185.116333007813	-143.8504791259766	1424.396606445313	-1212.929321289063	-79.83772277832033	1410.26025390625	-1224.021240234375	-89.36316680908205	1347.44580078125	-1180.673217773438	220.4062194824219	1350.1044921875	-1159.261108398438	209.3546447753907	1345.8095703125	-1238.912475585938	312.8446350097657	1344.347290039063	-1182.088012695313	-311.1397399902344	1586.902954101563	-707.6118164062501	-176.8520202636719	1468.274658203125	-598.4881591796876	-137.4522247314453	1488.298828125	-621.2643432617189	-112.3340301513672	1440.864501953125	-591.0733642578126	-49.65011978149415	1420.006469726563	-595.2638549804689	-70.2382049560547	1356.3134765625	-636.0697021484376	225.0651397705079	1342.818359375	-680.0258789062501	232.1975402832032	1336.32421875	-599.6692504882814	317.4571533203126	1339.161743164063	-671.5411376953126	-255.8261413574219	1065.095825195313	-1015.482788085938	-228.7594909667969	1092.427001953125	-728.0942993164064	-446.6547851562501	1155.152709960938	-860.592956542969	-453.657684326172	1123.682250976563	-888.2678222656252	-451.100799560547	1122.015014648438	-832.9884033203127	-340.1853332519532	862.1531372070315	-1076.898071289063	-320.0052185058594	780.7530517578127	-1081.488647460938	-271.2638854980469	776.918884277344	-1077.141845703125	-353.7856445312501	731.4443969726564	-1066.496459960938	-338.1801147460938	583.0714111328126	-1053.04345703125	-319.9477233886719	547.7307128906251	-924.730651855469	-294.0433349609376	360.8309020996094	-1017.990783691406	-330.3691406250001	323.5884399414063	-1091.687866210938	-295.6681823730469	319.3624572753907	-1060.777587890625	-292.1564025878907	237.2735595703126	-1040.358154296875	-346.2925109863282	116.8326568603516	-1092.4404296875	-397.4404907226564	83.17337799072267	-1044.186279296875	-188.0946044921875	57.30688095092775	-1024.402099609375	-181.5816955566407	59.27910614013673	-1067.23388671875	-313.4595336914063	124.726547241211	-1009.862915039063	-361.8894348144532	762.2905273437501	-688.4611816406251	-335.1008300781251	702.6860351562501	-686.1582641601564	-301.2269592285157	699.4470214843751	-688.0923461914064	-372.2358093261719	632.0867309570314	-704.1309204101564	-378.8175659179688	561.3464965820314	-707.4623413085939	-340.4127807617188	544.6300048828126	-833.434020996094	-322.5213623046876	427.1463928222657	-720.5321655273439	-382.1592712402344	343.4835205078126	-690.6945800781251	-337.4863586425782	342.5279235839844	-707.9537353515626	-326.4555358886719	298.5274047851563	-746.5787353515626	-382.3235473632813	115.6094207763672	-710.7123413085939	-348.7012329101563	124.5054550170899	-797.544372558594	-436.8086547851564	85.52377319335939	-768.0162353515627	-213.4236755371094	61.46725463867189	-748.0227661132814	-220.3449249267579	61.20151901245119	-710.6282348632814	-241.2063598632813	43.32376861572266	-663.2395629882814	
177	0.88	-260.6588745117188	1855.774780273438	-892.730163574219	-407.714569091797	1750.789794921875	-950.5028076171877	-403.2765197753907	1747.147216796875	-803.5308227539065	-454.4643554687501	1601.1962890625	-882.9720458984377	-446.5399169921876	1263.726196289063	-866.1118164062502	-288.6252746582032	1557.264038085938	-888.228454589844	-332.1803283691407	1587.336303710938	-1071.650024414063	-200.6810150146485	1455.153076171875	-1193.710815429688	-159.1802368164063	1480.631591796875	-1184.434936523438	-142.1357574462891	1428.911865234375	-1212.972534179688	-77.28445434570314	1415.472290039063	-1223.698120117188	-86.40641021728517	1352.391357421875	-1180.655151367188	223.6453857421876	1360.530883789063	-1158.337280273438	213.0981903076172	1355.559814453125	-1238.06884765625	316.2983093261719	1355.5087890625	-1181.172973632813	-311.3789062500001	1587.4521484375	-708.1968994140626	-175.2701416015625	1471.476440429688	-599.0819091796876	-136.5018005371094	1491.975219726563	-622.2393798828126	-110.6008529663086	1444.927001953125	-592.0081176757814	-47.50742340087891	1425.152465820313	-596.5044555664064	-67.22481536865236	1361.052490234375	-636.7444458007814	228.0959777832032	1352.489624023438	-682.5157470703126	235.7256011962891	1346.237182617188	-602.1206054687501	320.6467895507813	1350.520141601563	-674.5698852539064	-255.9026489257813	1065.186401367188	-1015.539611816406	-228.8048400878907	1092.421264648438	-728.1395263671876	-446.6799316406251	1155.193237304688	-860.5525512695315	-453.7402343750001	1123.772705078125	-888.2835693359377	-451.174285888672	1122.015502929688	-833.0305786132815	-340.3204956054688	862.1013793945315	-1076.947509765625	-320.0507202148438	780.7732543945315	-1081.502075195313	-271.0736389160157	776.8272705078127	-1077.121215820313	-353.7279663085938	731.4276123046876	-1066.496704101563	-337.8941040039063	582.9391479492189	-1052.95703125	-319.8954772949219	547.7689819335939	-924.7122192382815	-294.1596374511719	360.9432678222657	-1018.041015625	-330.2629089355469	323.5452575683594	-1091.651733398438	-295.6267700195313	319.2974548339844	-1060.757202148438	-292.0900268554688	237.1737365722657	-1040.351440429688	-346.0887756347657	116.685173034668	-1092.437255859375	-397.4542236328126	83.19465637207033	-1044.1875	-188.0772857666016	57.26834106445314	-1024.428588867188	-181.6118927001953	59.28464889526369	-1067.221801757813	-313.4567871093751	124.7847290039063	-1009.853881835938	-362.1268005371094	762.4249877929689	-687.6852416992189	-335.1219482421876	702.6890258789064	-686.1835937500001	-301.3173217773438	699.4759521484376	-688.0825195312501	-372.3133850097657	632.0788574218751	-704.1148681640626	-378.8306274414063	561.3438720703126	-707.4505004882814	-340.3677673339844	544.6151123046876	-833.4625244140627	-322.4993286132813	427.1492309570314	-720.4901733398439	-382.0227050781251	343.2698669433594	-691.2831420898439	-337.5469360351563	342.4886474609376	-708.0066528320314	-326.4274597167969	298.4168395996094	-746.5136718750001	-382.3188476562501	115.6001663208008	-710.6678466796876	-348.7320251464844	124.5342254638672	-797.5375976562502	-436.8087158203126	85.5328826904297	-768.0296020507815	-213.4498901367188	61.49080276489259	-748.0308227539064	-220.2786560058594	61.21857070922853	-710.6141967773439	-241.1846313476563	43.34821319580079	-663.2119750976564	
178	0.885	-261.3911437988282	1856.1689453125	-892.9122314453127	-408.4904785156251	1751.831909179688	-950.8826293945315	-403.7276916503907	1747.11376953125	-803.3963623046877	-454.7580871582032	1601.052490234375	-883.1752929687502	-446.645965576172	1263.762939453125	-866.0887451171877	-288.8964233398438	1557.31103515625	-888.3756103515627	-332.1680603027344	1588.146606445313	-1071.505126953125	-199.4151763916016	1458.861083984375	-1194.037475585938	-157.54638671875	1484.486083984375	-1183.9462890625	-139.896224975586	1433.290771484375	-1213.00048828125	-74.47373199462892	1420.161254882813	-1223.267333984375	-83.41065216064455	1357.22998046875	-1180.573852539063	226.9016571044922	1370.255737304688	-1157.311889648438	216.4922790527344	1365.178344726563	-1237.119995117188	319.4602661132813	1366.857543945313	-1180.113891601563	-311.6642150878907	1587.879028320313	-708.8575439453126	-173.9867553710938	1474.879516601563	-599.6640625000001	-135.5846099853516	1495.646728515625	-623.2991333007814	-108.7279434204102	1449.265991210938	-592.8358154296876	-45.40077209472657	1430.328125	-597.5740356445314	-64.57192230224611	1365.61669921875	-637.4774169921876	231.0538024902344	1361.949951171875	-684.9440307617189	239.1622009277344	1356.104248046875	-604.6613769531251	323.5028991699219	1361.6630859375	-677.5686645507814	-255.854721069336	1065.177368164063	-1015.550231933594	-228.8394012451172	1092.4365234375	-728.2174682617189	-446.7544860839845	1155.231811523438	-860.5767822265627	-453.8019104003907	1123.788818359375	-888.2836914062502	-451.2337646484376	1122.087890625	-832.9979248046877	-340.4072265625001	862.127624511719	-1076.930541992188	-320.0666809082032	780.7088012695315	-1081.59765625	-271.0591735839844	776.9047851562502	-1077.162475585938	-353.7254943847657	731.4195556640626	-1066.551391601563	-338.0109863281251	583.0816040039064	-1053.049682617188	-319.8302307128907	547.8165283203126	-924.7605590820315	-294.1034240722657	360.8308715820313	-1018.08349609375	-330.2476196289063	323.6156005859376	-1091.66845703125	-295.5627746582032	319.3142395019532	-1060.768920898438	-292.1706848144532	237.2708892822266	-1040.35693359375	-346.0648803710938	116.733627319336	-1092.418701171875	-397.4779663085939	83.19427490234376	-1044.191284179688	-188.0393676757813	57.34029006958009	-1024.398071289063	-181.079574584961	60.68024826049806	-1067.581176757813	-313.4738769531251	124.8038711547852	-1009.874206542969	-362.1417541503907	762.4160156250001	-687.8808593750001	-335.1430053710938	702.7263183593751	-686.2025146484376	-301.3367919921876	699.4810180664064	-688.1319580078126	-372.3154907226563	632.1251220703126	-704.1010131835939	-378.8591003417969	561.3783569335939	-707.4503173828126	-340.4107360839844	544.5657348632814	-833.4620361328127	-322.5789489746094	427.0986633300782	-720.4912719726564	-382.1643676757813	343.4915771484376	-690.6793212890626	-337.4535217285157	342.6075439453126	-707.9896240234376	-326.4527282714844	298.4568481445313	-746.5050048828126	-382.2746887207032	115.6888961791992	-710.6628417968751	-347.8927917480469	124.2332153320313	-797.3264160156252	-436.7953491210939	85.44876098632814	-768.0171508789065	-213.3862304687501	61.52047729492189	-748.0034790039064	-220.3461608886719	61.19192504882814	-710.6245727539064	-241.1556549072266	43.36590576171876	-663.2104492187501	
179	0.89	-262.0646667480469	1856.559814453125	-893.1482543945315	-408.7753906250001	1751.96240234375	-951.0767822265627	-403.8862304687501	1748.376586914063	-803.9598388671877	-455.1362915039064	1601.121215820313	-883.379821777344	-446.6523437500001	1263.739868164063	-866.090515136719	-289.2741088867188	1557.525512695313	-888.6702880859377	-332.2068176269532	1588.955932617188	-1071.29736328125	-197.7099304199219	1462.6103515625	-1194.239990234375	-156.0866851806641	1488.281860351563	-1183.613525390625	-137.093734741211	1437.396728515625	-1212.863403320313	-72.47349548339845	1425.41455078125	-1222.989135742188	-80.62792968750001	1362.265625	-1180.579833984375	229.9311981201172	1379.522827148438	-1156.389038085938	219.8009796142579	1374.533081054688	-1236.251708984375	322.4885253906251	1376.621704101563	-1178.49658203125	-311.7111206054688	1588.515991210938	-709.3909912109376	-172.501205444336	1478.019897460938	-600.2980346679689	-134.8069610595703	1499.191528320313	-624.3895263671876	-107.0379409790039	1453.423583984375	-593.8213500976564	-43.45381546020509	1435.303466796875	-598.6996459960939	-61.70836257934572	1370.25732421875	-638.4331665039064	233.684555053711	1371.259643554688	-687.5851440429689	242.0931701660157	1366.623779296875	-607.2053222656251	326.2624511718751	1372.258056640625	-680.4895629882814	-255.888412475586	1065.181762695313	-1015.610229492188	-228.8423156738282	1092.461669921875	-728.1998901367189	-446.8733215332032	1155.255249023438	-860.549743652344	-453.8865661621095	1123.866821289063	-888.3287353515627	-451.2943725585939	1122.0732421875	-832.9741821289065	-340.3526916503907	862.1730957031252	-1076.978393554688	-320.1137084960938	780.8365478515627	-1081.583740234375	-271.3402404785157	776.9614868164065	-1077.2587890625	-353.4892883300782	731.3595581054689	-1066.598999023438	-338.1750183105469	583.1730346679689	-1053.172973632813	-319.8157958984376	547.8087768554689	-924.7580566406252	-294.1177673339844	360.8506469726563	-1018.071716308594	-330.2598571777344	323.5977172851563	-1091.673706054688	-295.5634155273438	319.2772216796876	-1060.849853515625	-291.9945983886719	237.1898498535157	-1040.32275390625	-345.9535217285157	116.7491836547852	-1092.423828125	-397.4538879394532	83.23005676269533	-1044.166381835938	-188.0539855957032	57.2920608520508	-1024.38232421875	-181.3784484863282	59.85136795043947	-1067.370849609375	-313.4422302246094	124.8252487182617	-1009.865295410156	-362.1730346679688	762.4356689453126	-687.8598022460939	-335.1617431640626	702.7197875976564	-686.2800903320314	-301.3610839843751	699.4899291992189	-688.1593627929689	-372.3270263671876	632.1046752929689	-704.1207275390626	-378.8972473144532	561.3800659179689	-707.4815673828126	-340.4542236328126	544.5247192382814	-833.453308105469	-322.5776672363282	427.1328735351564	-720.5049438476564	-382.1228942871094	343.4203186035157	-690.9090576171876	-337.4416809082032	342.6580505371094	-708.0036010742189	-326.4970092773438	298.4990844726563	-746.5337524414064	-382.3179016113282	115.6459579467774	-710.6721801757814	-348.7723999023438	124.6022720336914	-797.5230712890627	-436.8053588867189	85.48887634277345	-768.033386230469	-213.3692779541016	61.50175857543947	-747.9846801757814	-220.2924041748047	61.23512268066408	-710.5883178710939	-241.1883697509766	43.33621215820313	-663.1978759765626	
